<svg width="89" height="18" viewBox="0 0 89 18" fill="none" xmlns="http://www.w3.org/2000/svg">
<path d="M1.38025 2.265C1.17211 1.93198 1.41153 1.5 1.80425 1.5H88C88.2761 1.5 88.5 1.72386 88.5 2V16C88.5 16.2761 88.2761 16.5 88 16.5H1.80425C1.41153 16.5 1.17211 16.068 1.38025 15.735L5.09275 9.795C5.39675 9.30859 5.39675 8.69141 5.09275 8.205L1.38025 2.265Z" fill="#FF535C" stroke="#FF535C"/>
<path d="M24.4082 13H25.9199V10.2051H27.7832C29.5 10.2051 30.6602 9.06836 30.6602 7.38086V7.36914C30.6602 5.67578 29.5 4.54492 27.7832 4.54492H24.4082V13ZM27.4141 5.78125C28.498 5.78125 29.1309 6.36133 29.1309 7.375V7.38672C29.1309 8.40039 28.498 8.98633 27.4141 8.98633H25.9199V5.78125H27.4141ZM34.7676 13.1289C36.6836 13.1289 37.8496 11.875 37.8496 9.80078V9.78906C37.8496 7.72656 36.6777 6.47266 34.7676 6.47266C32.8633 6.47266 31.6855 7.73242 31.6855 9.78906V9.80078C31.6855 11.875 32.8457 13.1289 34.7676 13.1289ZM34.7676 11.9453C33.7539 11.9453 33.1738 11.1543 33.1738 9.80664V9.79492C33.1738 8.44727 33.7539 7.65039 34.7676 7.65039C35.7754 7.65039 36.3555 8.44727 36.3555 9.79492V9.80664C36.3555 11.1543 35.7812 11.9453 34.7676 11.9453ZM39.3145 15.127H40.7734V11.9805H40.873C41.207 12.6719 41.9395 13.1055 42.8184 13.1055C44.4414 13.1055 45.4492 11.8457 45.4492 9.80664V9.79492C45.4492 7.76758 44.4238 6.49023 42.8184 6.49023C41.9219 6.49023 41.2246 6.90039 40.873 7.59766H40.7734V6.5957H39.3145V15.127ZM42.3613 11.875C41.3711 11.875 40.7559 11.084 40.7559 9.80078V9.78906C40.7559 8.50586 41.3711 7.7207 42.3613 7.7207C43.3574 7.7207 43.9609 8.50586 43.9609 9.79492V9.80664C43.9609 11.0898 43.3574 11.875 42.3613 11.875ZM49.041 13.1289C49.9668 13.1289 50.6172 12.7129 50.916 12.0273H51.0156V13H52.4746V6.5957H51.0156V10.3281C51.0156 11.2891 50.5117 11.8984 49.5684 11.8984C48.6895 11.8984 48.3203 11.3945 48.3203 10.4043V6.5957H46.8613V10.7383C46.8613 12.2617 47.5996 13.1289 49.041 13.1289ZM54.3145 13H55.7734V4.11719H54.3145V13ZM59.3652 13.1055C60.209 13.1055 60.8887 12.7422 61.2402 12.1211H61.3398V13H62.7812V8.62305C62.7812 7.26953 61.8555 6.47266 60.209 6.47266C58.6855 6.47266 57.6543 7.1875 57.5137 8.26562L57.5078 8.31836H58.8848L58.8906 8.29492C59.0371 7.87305 59.4707 7.63281 60.1387 7.63281C60.9238 7.63281 61.3398 7.98438 61.3398 8.62305V9.17383L59.6934 9.27344C58.1348 9.36719 57.2617 10.0352 57.2617 11.1777V11.1895C57.2617 12.3555 58.1465 13.1055 59.3652 13.1055ZM58.7031 11.1191V11.1074C58.7031 10.5801 59.084 10.2812 59.8984 10.2285L61.3398 10.1348V10.6504C61.3398 11.4121 60.6895 11.9863 59.8105 11.9863C59.166 11.9863 58.7031 11.6641 58.7031 11.1191ZM64.5332 13H65.9922V9.2793C65.9922 8.36523 66.6309 7.78516 67.6035 7.78516C67.8555 7.78516 68.0957 7.82031 68.3301 7.86719V6.56055C68.1895 6.51953 67.9609 6.49023 67.7383 6.49023C66.8945 6.49023 66.3086 6.89453 66.0918 7.58008H65.9922V6.5957H64.5332V13Z" fill="white"/>
</svg>
